<svg width="24" height="24" viewBox="0 0 24 24" fill="none" xmlns="http://www.w3.org/2000/svg">
<g clip-path="url(#clip0_4420_1518)">
<path d="M13.2104 17.37C10.3804 15.93 8.06039 13.62 6.62039 10.78L9.15039 8.24999L8.54039 2.99999H3.03039C2.45039 13.18 10.8204 21.55 21.0004 20.97V15.46L15.7304 14.85L13.2104 17.37ZM20.0004 3.99999V3.63999C20.0004 2.32999 19.0604 1.13999 17.7604 1.00999C16.2604 0.859987 15.0004 2.02999 15.0004 3.49999V3.99999H14.0004V9.99999H21.0004V3.99999H20.0004ZM19.0004 3.99999H16.0004V3.49999C16.0004 2.66999 16.6704 1.99999 17.5004 1.99999C18.3304 1.99999 19.0004 2.66999 19.0004 3.49999V3.99999Z" fill="black"/>
</g>
<defs>
<clipPath id="clip0_4420_1518">
<rect width="24" height="24" fill="white"/>
</clipPath>
</defs>
</svg>
