<svg width="24" height="24" viewBox="0 0 24 24" fill="none" xmlns="http://www.w3.org/2000/svg">
<g clip-path="url(#clip0_4420_1699)">
<path d="M19.5198 2.49002C17.1798 0.150019 12.8998 0.620018 9.96984 3.55002C8.36984 5.15002 7.44984 7.42002 7.42984 9.01002C7.40984 10.59 7.68984 12.9 6.07984 14.51L1.83984 18.75L3.25984 20.17L7.49984 15.93C9.10984 14.32 11.4198 14.6 12.9998 14.58C14.5798 14.56 16.8598 13.64 18.4598 12.04C21.3798 9.11002 21.8598 4.83002 19.5198 2.49002ZM10.3198 11.68C8.78984 10.15 9.26984 7.07002 11.3798 4.96002C13.4898 2.85002 16.5598 2.37002 18.0998 3.90002C19.6298 5.43002 19.1498 8.51002 17.0398 10.62C14.9298 12.73 11.8598 13.21 10.3198 11.68Z" fill="black"/>
<path d="M18 17C18.53 17 19.04 17.21 19.41 17.59C20.19 18.37 20.19 19.64 19.41 20.42C19.04 20.79 18.53 21 18 21C17.47 21 16.96 20.79 16.59 20.41C15.81 19.63 15.81 18.36 16.59 17.58C16.96 17.21 17.47 17 18 17ZM18 15C16.98 15 15.95 15.39 15.17 16.17C13.61 17.73 13.61 20.26 15.17 21.83C15.95 22.61 16.98 23 18 23C19.02 23 20.05 22.61 20.83 21.83C22.39 20.27 22.39 17.74 20.83 16.17C20.05 15.39 19.02 15 18 15Z" fill="black"/>
</g>
<defs>
<clipPath id="clip0_4420_1699">
<rect width="24" height="24" fill="white"/>
</clipPath>
</defs>
</svg>
