<svg width="24" height="24" viewBox="0 0 24 24" fill="none" xmlns="http://www.w3.org/2000/svg">
<g clip-path="url(#clip0_4420_847)">
<path d="M21.79 17.9999L23.79 19.9999H24V17.9999H21.79ZM13 9.12995V6.99995L17 10.7399L15.72 11.9299L20.9 17.1099L22 15.9999V4.01995H7.8L12.93 9.14995C12.96 9.13995 12.98 9.12995 13 9.12995V9.12995ZM1.11 2.97995L2 3.87995V16.0199L4 18.0099L0 17.9999V19.9999H18.13L20.84 22.7099L22.25 21.2999L2.52 1.56995L1.11 2.97995ZM9.08 10.9499L10.67 12.5399C9.13 12.9199 7.96 13.7099 7 14.9999C7.31 13.5199 7.94 12.0699 9.08 10.9499Z" fill="black"/>
</g>
<defs>
<clipPath id="clip0_4420_847">
<rect width="24" height="24" fill="white"/>
</clipPath>
</defs>
</svg>
